<svg xmlns="http://www.w3.org/2000/svg" xmlns:xlink="http://www.w3.org/1999/xlink" width="500" zoomAndPan="magnify" viewBox="0 0 375 374.999991" height="500" preserveAspectRatio="xMidYMid meet" version="1.0"><defs><clipPath id="005b558d37"><path d="M 124 260 L 266 260 L 266 367.773438 L 124 367.773438 Z M 124 260 " clip-rule="nonzero"/></clipPath><clipPath id="9a66192b2a"><path d="M 45.945312 241 L 198 241 L 198 355 L 45.945312 355 Z M 45.945312 241 " clip-rule="nonzero"/></clipPath><clipPath id="8da6a9c33b"><path d="M 123 105.273438 L 265 105.273438 L 265 213 L 123 213 Z M 123 105.273438 " clip-rule="nonzero"/></clipPath><clipPath id="e872d9fbb1"><path d="M 191 118 L 342.945312 118 L 342.945312 232 L 191 232 Z M 191 118 " clip-rule="nonzero"/></clipPath></defs><path fill="#7f248d" d="M 257.148438 201.832031 C 250.992188 202.398438 245.1875 204.035156 239.90625 206.542969 C 261.191406 207.039062 280.761719 220.882812 287.542969 242.347656 C 297.746094 274.632812 267.589844 323.234375 272.882812 362.894531 C 275.902344 325.714844 310.691406 287.519531 312.902344 255.1875 C 315.21875 256.683594 318.027344 257.453125 320.984375 257.179688 C 328.011719 256.53125 333.183594 250.300781 332.535156 243.261719 C 331.886719 236.226562 325.667969 231.046875 318.644531 231.695312 C 315.246094 232.007812 312.292969 233.636719 310.210938 236.015625 C 302.65625 214.273438 281.074219 199.625 257.148438 201.832031 " fill-opacity="1" fill-rule="nonzero"/><g clip-path="url(#005b558d37)"><path fill="#1082ce" d="M 255.796875 273.5625 C 252.226562 268.503906 247.910156 264.289062 243.097656 260.960938 C 253.3125 279.667969 251.128906 303.566406 235.957031 320.179688 C 213.140625 345.171875 156.039062 343.320312 124.390625 367.738281 C 158.046875 351.769531 208.472656 362.84375 237.535156 348.597656 C 237.402344 351.351562 238.136719 354.175781 239.851562 356.601562 C 243.925781 362.375 251.898438 363.742188 257.660156 359.664062 C 263.421875 355.582031 264.792969 347.597656 260.71875 341.832031 C 258.746094 339.039062 255.867188 337.292969 252.765625 336.675781 C 267.792969 319.25 269.667969 293.210938 255.796875 273.5625 " fill-opacity="1" fill-rule="nonzero"/></g><g clip-path="url(#9a66192b2a)"><path fill="#40b93c" d="M 193.09375 308.257812 C 195.679688 302.628906 197.167969 296.777344 197.640625 290.9375 C 186.570312 309.152344 164.8125 319.210938 142.859375 314.359375 C 109.839844 307.0625 82.894531 256.609375 45.953125 241.367188 C 76.589844 262.578125 92.226562 311.851562 119.078125 329.933594 C 116.628906 331.195312 114.558594 333.246094 113.316406 335.945312 C 110.363281 342.363281 113.164062 349.964844 119.574219 352.921875 C 125.980469 355.878906 133.570312 353.074219 136.519531 346.65625 C 137.949219 343.554688 138.019531 340.179688 137 337.179688 C 159.582031 341.503906 183.039062 330.105469 193.09375 308.257812 " fill-opacity="1" fill-rule="nonzero"/></g><path fill="#fbc108" d="M 131.742188 271.214844 C 137.898438 270.648438 143.707031 269.007812 148.988281 266.5 C 127.703125 266.007812 108.128906 252.164062 101.347656 230.699219 C 91.144531 198.414062 121.300781 149.8125 116.011719 110.152344 C 112.988281 147.332031 78.199219 185.527344 75.992188 217.859375 C 73.671875 216.363281 70.867188 215.59375 67.90625 215.867188 C 60.878906 216.515625 55.707031 222.742188 56.355469 229.78125 C 57.003906 236.820312 63.222656 242 70.25 241.351562 C 73.644531 241.035156 76.597656 239.410156 78.683594 237.03125 C 86.238281 258.773438 107.820312 273.421875 131.742188 271.214844 " fill-opacity="1" fill-rule="nonzero"/><g clip-path="url(#8da6a9c33b)"><path fill="#e91348" d="M 133.09375 199.484375 C 136.664062 204.542969 140.984375 208.757812 145.792969 212.082031 C 135.578125 193.375 137.761719 169.476562 152.933594 152.863281 C 175.753906 127.871094 232.851562 129.726562 264.503906 105.308594 C 230.84375 121.277344 180.417969 110.203125 151.355469 124.449219 C 151.492188 121.691406 150.75 118.871094 149.039062 116.445312 C 144.964844 110.671875 136.992188 109.300781 131.230469 113.382812 C 125.46875 117.460938 124.097656 125.449219 128.175781 131.214844 C 130.144531 134.007812 133.027344 135.753906 136.128906 136.371094 C 121.101562 153.792969 119.226562 179.835938 133.09375 199.484375 " fill-opacity="1" fill-rule="nonzero"/></g><g clip-path="url(#e872d9fbb1)"><path fill="#f1471d" d="M 195.800781 164.789062 C 193.210938 170.417969 191.722656 176.269531 191.25 182.109375 C 202.320312 163.890625 224.078125 153.835938 246.03125 158.6875 C 279.050781 165.984375 306 216.4375 342.941406 231.679688 C 312.300781 210.46875 296.664062 161.195312 269.8125 143.113281 C 272.265625 141.851562 274.335938 139.800781 275.578125 137.101562 C 278.53125 130.679688 275.730469 123.082031 269.320312 120.125 C 262.914062 117.167969 255.320312 119.972656 252.367188 126.390625 C 250.945312 129.492188 250.871094 132.867188 251.890625 135.867188 C 229.308594 131.542969 205.851562 142.9375 195.800781 164.789062 " fill-opacity="1" fill-rule="nonzero"/></g></svg>